<svg id="visual" viewBox="0 0 900 300" width="900" height="300" xmlns="http://www.w3.org/2000/svg" xmlns:xlink="http://www.w3.org/1999/xlink" version="1.1"><rect x="0" y="0" width="900" height="300" fill="#FFFFFF"></rect><path d="M0 164L25 162.7C50 161.3 100 158.7 150 164.8C200 171 250 186 300 187.2C350 188.3 400 175.7 450 167.8C500 160 550 157 600 160.2C650 163.3 700 172.7 750 176.2C800 179.7 850 177.3 875 176.2L900 175L900 301L875 301C850 301 800 301 750 301C700 301 650 301 600 301C550 301 500 301 450 301C400 301 350 301 300 301C250 301 200 301 150 301C100 301 50 301 25 301L0 301Z" fill="#4facf7"></path><path d="M0 210L25 213.7C50 217.3 100 224.7 150 226C200 227.3 250 222.7 300 221.2C350 219.7 400 221.3 450 217.8C500 214.3 550 205.7 600 201C650 196.3 700 195.7 750 195.5C800 195.3 850 195.7 875 195.8L900 196L900 301L875 301C850 301 800 301 750 301C700 301 650 301 600 301C550 301 500 301 450 301C400 301 350 301 300 301C250 301 200 301 150 301C100 301 50 301 25 301L0 301Z" fill="#008cff"></path><path d="M0 251L25 248C50 245 100 239 150 239.8C200 240.7 250 248.3 300 254C350 259.7 400 263.3 450 259.7C500 256 550 245 600 244C650 243 700 252 750 254.7C800 257.3 850 253.7 875 251.8L900 250L900 301L875 301C850 301 800 301 750 301C700 301 650 301 600 301C550 301 500 301 450 301C400 301 350 301 300 301C250 301 200 301 150 301C100 301 50 301 25 301L0 301Z" fill="#007bff"></path></svg>